<svg id="图层_1" data-name="图层 1" xmlns="http://www.w3.org/2000/svg" viewBox="0 0 56.69 56.69"><defs><style>.cls-1{fill:#231815;}</style></defs><title>icon</title><path class="cls-1" d="M26.75,28a5,5,0,1,1,5-5A5,5,0,0,1,26.75,28Zm0-9a4,4,0,1,0,4,4A4,4,0,0,0,26.75,19Z"/><path class="cls-1" d="M18.25,36.54h-1a9.5,9.5,0,0,1,17.38-5.31l-.83.56a8.5,8.5,0,0,0-15.55,4.75Z"/><path class="cls-1" d="M34.89,33.31a1.34,1.34,0,0,0,1.16,2.41l.2-.12a.19.19,0,0,0-.22-.31l-.15.09a1,1,0,1,1,.44-1.27.91.91,0,0,1,.06.16.2.2,0,0,0,.23.14.2.2,0,0,0,.13-.24.93.93,0,0,0-.08-.22,1.32,1.32,0,0,0-1.77-.64Zm3.77-1.16a.18.18,0,0,0-.19-.07,1.48,1.48,0,0,1-1.19-.24,1.55,1.55,0,0,1-.65-1,.18.18,0,0,0-.13-.16A4,4,0,0,0,35,30.52a.18.18,0,0,0-.16.14,1.5,1.5,0,0,1-2,.95.2.2,0,0,0-.21,0,4,4,0,0,0-.83,1.24.18.18,0,0,0,0,.2,1.55,1.55,0,0,1,.4,1.16,1.51,1.51,0,0,1-.56,1.07.19.19,0,0,0-.06.2,3.34,3.34,0,0,0,.26.71,3.39,3.39,0,0,0,.39.65.18.18,0,0,0,.19.07,1.48,1.48,0,0,1,1.19.24,1.5,1.5,0,0,1,.64,1,.21.21,0,0,0,.14.16,3.76,3.76,0,0,0,1.49.12H36a.17.17,0,0,0,.1-.12,1.49,1.49,0,0,1,.79-.91,1.44,1.44,0,0,1,1.2,0,.18.18,0,0,0,.2,0,3.89,3.89,0,0,0,.84-1.24.18.18,0,0,0,0-.2,1.55,1.55,0,0,1-.4-1.16,1.51,1.51,0,0,1,.56-1.07.19.19,0,0,0,.06-.2,3.34,3.34,0,0,0-.26-.71,3.39,3.39,0,0,0-.39-.65Zm.25,1.34a1.9,1.9,0,0,0-.6,1.26,2,2,0,0,0,.42,1.35,3.42,3.42,0,0,1-.63.92,1.86,1.86,0,0,0-1.39.09,1.9,1.9,0,0,0-.94,1,3.77,3.77,0,0,1-1.11-.1,1.91,1.91,0,0,0-.79-1.17,1.86,1.86,0,0,0-1.36-.31,4.08,4.08,0,0,1-.28-.49,4.87,4.87,0,0,1-.21-.53,1.87,1.87,0,0,0,.61-1.26,1.91,1.91,0,0,0-.42-1.34,3.32,3.32,0,0,1,.63-.93,1.86,1.86,0,0,0,1.39-.09,1.83,1.83,0,0,0,.94-1,3.77,3.77,0,0,1,1.11.1,2,2,0,0,0,.79,1.17,1.86,1.86,0,0,0,1.36.31,4.08,4.08,0,0,1,.28.49,3.39,3.39,0,0,1,.2.53Zm0,0"/><path class="cls-1" d="M35.51,38.65a4.11,4.11,0,0,1-1.1-.15.31.31,0,0,1-.23-.26,1.41,1.41,0,0,0-1.68-1.17.31.31,0,0,1-.32-.12,3.88,3.88,0,0,1-.41-.67,3.51,3.51,0,0,1-.26-.73.3.3,0,0,1,.1-.33,1.35,1.35,0,0,0,.52-1,1.43,1.43,0,0,0-.37-1.06.31.31,0,0,1-.06-.34,4.15,4.15,0,0,1,.87-1.28.31.31,0,0,1,.33-.07,1.34,1.34,0,0,0,1.11,0,1.37,1.37,0,0,0,.72-.84A.31.31,0,0,1,35,30.4a4,4,0,0,1,1.54.13.31.31,0,0,1,.23.26A1.41,1.41,0,0,0,38.44,32a.3.3,0,0,1,.32.12h0a3.83,3.83,0,0,1,.4.67,3.21,3.21,0,0,1,.27.73.32.32,0,0,1-.1.33,1.35,1.35,0,0,0-.52,1,1.39,1.39,0,0,0,.37,1.06.33.33,0,0,1,.06.34,4.15,4.15,0,0,1-.87,1.28.33.33,0,0,1-.34.07,1.32,1.32,0,0,0-1.1,0,1.37,1.37,0,0,0-.72.84.3.3,0,0,1-.16.19.19.19,0,0,1-.1,0ZM32.8,36.79a1.65,1.65,0,0,1,.93.29,1.69,1.69,0,0,1,.7,1.12.06.06,0,0,0,0,.06,3.88,3.88,0,0,0,1.44.12s0,0,0,0a1.63,1.63,0,0,1,.85-1,1.66,1.66,0,0,1,1.31,0,.06.06,0,0,0,.07,0,4,4,0,0,0,.81-1.2A.07.07,0,0,0,39,36a1.68,1.68,0,0,1-.43-1.25,1.61,1.61,0,0,1,.61-1.16,0,0,0,0,0,0-.06,3.51,3.51,0,0,0-.25-.69,4.06,4.06,0,0,0-.38-.63h0s0,0-.07,0a1.58,1.58,0,0,1-1.28-.26,1.65,1.65,0,0,1-.7-1.12s0,0,0-.05A3.88,3.88,0,0,0,35,30.65a0,0,0,0,0-.05,0,1.6,1.6,0,0,1-2.16,1,.1.1,0,0,0-.07,0,3.79,3.79,0,0,0-.81,1.2.09.09,0,0,0,0,.07,1.63,1.63,0,0,1,.44,1.24,1.65,1.65,0,0,1-.61,1.17,0,0,0,0,0,0,.06,3.51,3.51,0,0,0,.25.69,3.4,3.4,0,0,0,.38.63s0,0,.06,0A1.47,1.47,0,0,1,32.8,36.79Zm2.71,1.48a3.66,3.66,0,0,1-.88-.11h-.08l0-.08a1.79,1.79,0,0,0-2-1.39h-.08l0-.06a4.4,4.4,0,0,1-.29-.51,3,3,0,0,1-.22-.55l0-.07.06-.06a1.79,1.79,0,0,0,.57-1.17,1.82,1.82,0,0,0-.4-1.26l0-.06,0-.07a3.62,3.62,0,0,1,.65-1l0-.06.08,0a1.73,1.73,0,0,0,2.17-1l0-.07h.08a3.41,3.41,0,0,1,1.15.1h.08l0,.08a1.77,1.77,0,0,0,.73,1.09,1.74,1.74,0,0,0,1.27.3h.08l0,.06a4.4,4.4,0,0,1,.29.51,3,3,0,0,1,.21.55l0,.07-.06.06a1.75,1.75,0,0,0-.57,1.17A1.86,1.86,0,0,0,38.82,36l0,.06,0,.07a4.16,4.16,0,0,1-.65,1l0,.06-.08,0a1.72,1.72,0,0,0-2.17,1l0,.07h-.35Zm-.75-.33a4.08,4.08,0,0,0,.93.08,2,2,0,0,1,1-1,2,2,0,0,1,1.4-.12,3.36,3.36,0,0,0,.52-.77,2.1,2.1,0,0,1-.4-1.37,2,2,0,0,1,.59-1.28A3.68,3.68,0,0,0,38.6,33c-.07-.14-.15-.28-.23-.41a2,2,0,0,1-2.19-1.52,3.58,3.58,0,0,0-.92-.08,2,2,0,0,1-1,1,2,2,0,0,1-1.4.12,3.36,3.36,0,0,0-.52.77,2.1,2.1,0,0,1,.4,1.37,2,2,0,0,1-.59,1.28,4.49,4.49,0,0,0,.17.44,3.3,3.3,0,0,0,.23.41,2,2,0,0,1,2.19,1.52Zm.73-2a1.43,1.43,0,0,1-.5-.09A1.47,1.47,0,0,1,34.1,34a1.45,1.45,0,0,1,.74-.82h0a1.44,1.44,0,0,1,1.1,0,1.48,1.48,0,0,1,.84.75,1.23,1.23,0,0,1,.08.25.26.26,0,0,1,0,.24.34.34,0,0,1-.18.15.32.32,0,0,1-.39-.23s0-.1,0-.14a.83.83,0,0,0-1.1-.4.84.84,0,0,0,.72,1.51l.12-.08a.32.32,0,0,1,.23-.06.33.33,0,0,1,.21.13.32.32,0,0,1-.07.44l-.22.14A1.43,1.43,0,0,1,35.49,36Zm0-2.68a1.11,1.11,0,0,0-.5.12h0A1.21,1.21,0,0,0,34.39,35a1.17,1.17,0,0,0,.69.62,1.11,1.11,0,0,0,.91,0l.19-.11a.06.06,0,0,0,0-.09.05.05,0,0,0,0,0h0a1,1,0,0,1-.16.1A1.07,1.07,0,0,1,34.51,35a1,1,0,0,1,0-.83,1,1,0,0,1,.54-.61,1.08,1.08,0,0,1,1.43.51.84.84,0,0,1,.07.19s0,.06.08,0,0,0,0,0a0,0,0,0,0,0,0,.86.86,0,0,0-.07-.21,1.21,1.21,0,0,0-.7-.63A1.34,1.34,0,0,0,35.45,33.3Z"/></svg>