<svg id="图层_1" width="108" height="108.12" data-name="图层 1" xmlns="http://www.w3.org/2000/svg" viewBox="0 0 108 108.12"><defs><style>.cls-1{fill:#231815;}</style></defs><title>WE ID</title><path class="cls-1" d="M6,99.13H7.26l2.16,6.56,2.11-6.54h1.62L10.08,108H8.74L6.58,101.7,4.41,108H3.07L0,99.15H1.68l2.1,6.54Z"/><path class="cls-1" d="M23,100.54H18v2.29h4.42v1.38H18v2.37h5.05V108h-6.6V99.15H23Z"/><path class="cls-1" d="M38.75,99.15V108H37.2V99.15Z"/><path class="cls-1" d="M47.47,108H44.18V99.15h3.29a4.42,4.42,0,1,1,0,8.82Zm0-7.41H45.73v6h1.74a3,3,0,1,0,0-6Z"/><path class="cls-1" d="M63.6,100.54h-5v2.29H63v1.38H58.62v2.37h5.05V108h-6.6V99.15H63.6Z"/><path class="cls-1" d="M72.14,102.85C74,103.31,75,104,75,105.45c0,1.66-1.3,2.64-3.15,2.64a5.41,5.41,0,0,1-3.68-1.41l.93-1.11a4,4,0,0,0,2.79,1.15c.95,0,1.56-.44,1.56-1.12s-.35-1-2-1.36c-1.88-.45-2.94-1-2.94-2.65s1.26-2.57,3-2.57a4.91,4.91,0,0,1,3.2,1.11l-.83,1.18a4,4,0,0,0-2.39-.91c-.91,0-1.44.46-1.44,1.06S70.46,102.45,72.14,102.85Z"/><path class="cls-1" d="M81.54,99.15V108H80V99.15Z"/><path class="cls-1" d="M89.41,108.12a4.39,4.39,0,0,1-4.58-4.55A4.49,4.49,0,0,1,89.38,99a4.76,4.76,0,0,1,3.39,1.2l-1,1.17a3.46,3.46,0,0,0-2.47-1,3.15,3.15,0,0,0,.14,6.29,3.65,3.65,0,0,0,2.13-.67v-1.65H89.33V103h3.76v3.71A5.65,5.65,0,0,1,89.41,108.12Z"/><path class="cls-1" d="M102.48,99.15H104V108h-1.3l-4.86-6.27V108H96.32V99.15h1.43l4.73,6.1Z"/><polygon class="cls-1" points="57 38.8 28.5 19.8 0 38.8 0 0 3 0 3 33.2 28.5 16.2 54 33.2 54 0 57 0 57 38.8"/><path class="cls-1" d="M40.5,81H0V51.5H3V78H40.5a16.5,16.5,0,0,0,0-33h-30V42h30a19.5,19.5,0,0,1,0,39Z"/><circle class="cls-1" cx="2.69" cy="43.44" r="2.69"/><path class="cls-1" d="M95,40.52a21.12,21.12,0,0,0,10.09-8.88l.12-.21-2.92-1.69-.12.21a17.72,17.72,0,1,1,1.95-12.7H71.49v3.37H108l-.21-1.87A21.09,21.09,0,1,0,78.53,40.48a21.12,21.12,0,0,0-10.09,8.88l-.12.21,2.91,1.69.13-.21a17.72,17.72,0,1,1-2,12.7h32.64V60.38H65.54l.21,1.87A21.09,21.09,0,1,0,95,40.52Z"/><rect class="cls-1" x="28.85" y="102.83" width="2.31" height="1.39"/></svg>